<svg width="74" height="74" viewBox="0 0 74 74" fill="none" xmlns="http://www.w3.org/2000/svg">
<path d="M19.139 35.7261L17.2926 34.8028C16.8605 34.5867 16.5875 34.145 16.5875 33.6617V28.8599C16.5875 28.3767 16.8605 27.9349 17.2926 27.7188L19.139 26.7955V35.7261Z" fill="#707487"/>
<path d="M48.4822 52.3112V43.3808H25.518V52.3112L37.0001 62.5175L48.4822 52.3112Z" fill="#E6AF78"/>
<path d="M66.2363 56.4887L50.4494 52.7741C50.2109 52.718 49.9916 52.6228 49.7864 52.5073L36.9999 59.9661L24.7121 52.1465C24.394 52.446 23.9991 52.6686 23.5507 52.7742L7.76375 56.4888C5.45849 57.0312 3.82935 59.0882 3.82935 61.4563V71.4483C3.82935 72.8576 4.97171 73.9998 6.38089 73.9998H67.6187C69.028 73.9998 70.1702 72.8575 70.1702 71.4483V61.4563C70.1705 59.0881 68.5414 57.031 66.2363 56.4887Z" fill="#B4E1FA"/>
<path d="M25.518 43.3808V52.8032C39.9823 58.0145 48.4822 44.9718 48.4822 44.9718V43.3807H25.518V43.3808Z" fill="#D29B6E"/>
<path d="M20.4148 14.0378L21.5265 38.4964C21.6303 40.7813 22.7507 42.9002 24.5804 44.2725L29.8555 48.2289C31.1805 49.2225 32.7921 49.7599 34.4484 49.7599H39.5516C41.2079 49.7599 42.8194 49.2227 44.1445 48.2289L49.4196 44.2725C51.2493 42.9001 52.3697 40.7814 52.4735 38.4964L53.5852 14.0378H20.4148Z" fill="#F0C087"/>
<path d="M33.1728 19.1409C38.276 19.1409 45.9306 17.8651 47.7462 14.0377H20.4148L21.5265 38.4963C21.6303 40.7811 22.7507 42.8999 24.5806 44.2724L29.8556 48.2288C31.1807 49.2224 32.7922 49.7598 34.4485 49.7598H37.0001C34.4485 49.7598 29.3453 44.6566 29.3453 38.2777C29.3453 35.1579 29.3453 26.7956 29.3453 22.9682C29.3453 21.6924 30.6211 19.1409 33.1728 19.1409Z" fill="#E6AF78"/>
<path d="M13.1956 65.72L4.92864 58.2938C4.2359 59.1709 3.82977 60.2747 3.82977 61.4564V71.4483C3.82977 72.8577 4.97214 73.9999 6.38131 73.9999H15.3118V70.4655C15.3117 68.655 14.5424 66.9297 13.1956 65.72Z" fill="#A0D2F0"/>
<path d="M60.8047 65.72L69.0717 58.2938C69.7644 59.1709 70.1705 60.2747 70.1705 61.4564V71.4483C70.1705 72.8577 69.0282 73.9999 67.619 73.9999H58.6884V70.4655C58.6884 68.655 59.4578 66.9297 60.8047 65.72Z" fill="#A0D2F0"/>
<path d="M40.1896 73.9997H33.8106L34.608 62.5175H39.3922L40.1896 73.9997Z" fill="#5B5D6E"/>
<path d="M40.1896 59.9659H33.8106V62.367C33.8106 63.1549 34.4491 63.7934 35.2369 63.7934H38.7631C39.5509 63.7934 40.1894 63.1549 40.1894 62.367V59.9659H40.1896Z" fill="#515262"/>
<path d="M25.3389 49.4709L37.0002 59.966C37.0002 59.966 33.7344 61.6146 29.7043 64.9375C28.873 65.6229 27.6154 65.3452 27.1695 64.3643L21.6908 52.3113L23.424 49.7117C23.8553 49.0642 24.7607 48.9506 25.3389 49.4709Z" fill="#A0D2F0"/>
<path d="M48.6614 49.4709L37.0001 59.966C37.0001 59.966 40.2659 61.6146 44.296 64.9375C45.1273 65.6229 46.3848 65.3452 46.8307 64.3643L52.3094 52.3113L50.5762 49.7117C50.1448 49.0642 49.2395 48.9506 48.6614 49.4709Z" fill="#A0D2F0"/>
<path d="M44.7345 5.58567L45.9305 14.0378C51.3901 15.1297 52.1769 23.6978 52.2902 26.145C52.3108 26.5891 52.4525 27.0179 52.6935 27.3916L54.7766 30.623C54.7766 30.623 54.0636 25.2805 57.3281 21.6924C57.3281 21.6924 58.4492 0.482449 44.7345 5.58567Z" fill="#785550"/>
<path d="M21.6375 3.29976L23.5245 4.58883C14.9927 10.888 16.5873 21.6924 16.5873 21.6924C19.1389 24.244 19.1389 30.6229 19.1389 30.6229L21.6904 28.0714C21.6904 28.0714 20.7057 20.7006 25.5177 17.8651C29.983 15.2338 33.8901 16.5893 37.8769 16.5893C48.5616 16.5893 51.5518 12.5626 51.0336 7.6588C50.7653 5.12143 46.8858 -0.164051 36.9999 0.00403823C33.0103 0.071823 25.518 1.27981 21.6375 3.29976Z" fill="#694B4B"/>
<path d="M20.8932 15.473C20.8932 15.473 19.5376 10.1306 23.5245 4.58899C14.9927 10.8882 16.5873 21.6926 16.5873 21.6926C19.1389 24.2441 19.1389 30.6231 19.1389 30.6231L21.6904 28.0716C21.6904 28.0716 20.7057 20.7008 25.5177 17.8653C29.983 15.2339 33.8901 16.5895 37.8769 16.5895C39.6146 16.5895 41.1289 16.4731 42.4776 16.2737C34.2492 16.5495 29.3986 10.3166 20.8932 15.473Z" fill="#5A4146"/>
<path d="M21.0527 37.0018H19.139C18.4344 37.0018 17.8632 36.4306 17.8632 35.726V26.7955C17.8632 26.0909 18.4344 25.5197 19.139 25.5197H21.0527C21.4049 25.5197 21.6907 25.8053 21.6907 26.1577V36.3638C21.6905 36.7163 21.4049 37.0018 21.0527 37.0018Z" fill="#5B5D6E"/>
<path d="M54.8611 35.7261L56.7075 34.8028C57.1397 34.5867 57.4127 34.145 57.4127 33.6617V28.8599C57.4127 28.3767 57.1397 27.9349 56.7075 27.7188L54.8611 26.7955V35.7261Z" fill="#707487"/>
<path d="M52.9474 37.0018H54.8611C55.5657 37.0018 56.1369 36.4306 56.1369 35.726V26.7955C56.1369 26.0909 55.5657 25.5197 54.8611 25.5197H52.9474C52.5952 25.5197 52.3094 25.8053 52.3094 26.1577V36.3638C52.3096 36.7163 52.5952 37.0018 52.9474 37.0018Z" fill="#5B5D6E"/>
<path d="M53.5854 71.4481H44.6548C43.9502 71.4481 43.3791 72.0192 43.3791 72.7238V73.9996H54.8611V72.7238C54.8611 72.0194 54.2898 71.4481 53.5854 71.4481Z" fill="#A0D2F0"/>
</svg>
