<svg width="74" height="64" viewBox="0 0 74 64" fill="none" xmlns="http://www.w3.org/2000/svg">
<path d="M66.0714 0H7.92857C3.54975 0 0 3.54975 0 7.92857V55.5C0 59.8789 3.54975 63.4286 7.92857 63.4286H66.0714C70.4504 63.4286 74 59.8789 74 55.5V7.92857C74 3.54975 70.4504 0 66.0714 0Z" fill="#B71C1C"/>
<path d="M60.7857 52.8571H13.2143C12.5133 52.8571 11.8411 52.5786 11.3455 52.083C10.8499 51.5875 10.5714 50.9152 10.5714 50.2143C10.5714 49.5134 10.8499 48.841 11.3455 48.3455C11.8411 47.85 12.5133 47.5714 13.2143 47.5714H60.7857C61.4866 47.5714 62.1589 47.85 62.6545 48.3455C63.15 48.841 63.4286 49.5134 63.4286 50.2143C63.4286 50.9152 63.15 51.5875 62.6545 52.083C62.1589 52.5786 61.4866 52.8571 60.7857 52.8571Z" fill="#EEEEEE"/>
<path d="M44.9286 55.5C44.2277 55.5 43.5553 55.2214 43.0598 54.7259C42.5643 54.2304 42.2857 53.558 42.2857 52.8571V47.5714C42.2857 46.8705 42.5643 46.1982 43.0598 45.7027C43.5553 45.2071 44.2277 44.9286 44.9286 44.9286C45.6294 44.9286 46.3018 45.2071 46.7973 45.7027C47.2929 46.1982 47.5714 46.8705 47.5714 47.5714V52.8571C47.5714 53.558 47.2929 54.2304 46.7973 54.7259C46.3018 55.2214 45.6294 55.5 44.9286 55.5Z" fill="#EEEEEE"/>
<path d="M48.7607 22.9135L30.2607 13.6634C29.8585 13.4607 29.411 13.3642 28.9607 13.383C28.5106 13.4019 28.073 13.5355 27.689 13.7712C27.3049 14.0068 26.9875 14.3367 26.7671 14.7296C26.5464 15.1224 26.4299 15.5651 26.4286 16.0157V36.8414C26.432 37.3123 26.5612 37.7738 26.8028 38.1779C27.0444 38.5822 27.3898 38.9144 27.8029 39.1407C28.1855 39.3706 28.6248 39.4895 29.0714 39.4842C29.5662 39.4858 30.0517 39.3484 30.4721 39.0878L48.9721 27.5121C49.3728 27.2626 49.6992 26.9103 49.9175 26.492C50.1361 26.0739 50.2383 25.6048 50.2143 25.1335C50.1892 24.6681 50.0417 24.2178 49.7864 23.8277C49.5311 23.4379 49.1772 23.1226 48.7607 22.9135Z" fill="#EEEEEE"/>
<path d="M7.92857 0C5.82578 0 3.80912 0.835329 2.32223 2.32223C0.835328 3.80912 0 5.82578 0 7.92857V55.5C0 57.6027 0.835328 59.6194 2.32223 61.1063C3.80912 62.5932 5.82578 63.4286 7.92857 63.4286H37V0H7.92857Z" fill="#E53935"/>
<path d="M13.2143 47.5714C12.5133 47.5714 11.8411 47.85 11.3455 48.3455C10.8499 48.841 10.5714 49.5134 10.5714 50.2143C10.5714 50.9152 10.8499 51.5875 11.3455 52.083C11.8411 52.5786 12.5133 52.8571 13.2143 52.8571H37V47.5714H13.2143Z" fill="#FAFAFA"/>
<path d="M30.2607 13.6634C29.8585 13.4607 29.411 13.3642 28.9607 13.383C28.5106 13.4019 28.073 13.5355 27.689 13.7712C27.3049 14.0068 26.9875 14.3367 26.7671 14.7296C26.5464 15.1224 26.4299 15.5651 26.4286 16.0157V36.8414C26.432 37.3123 26.5612 37.7738 26.8028 38.1779C27.0444 38.5822 27.3898 38.9144 27.8029 39.1407C28.1855 39.3706 28.6248 39.4895 29.0714 39.4842C29.5662 39.4858 30.0517 39.3484 30.4721 39.0878L37 34.9914V17.02L30.2607 13.6634Z" fill="#FFEBEE"/>
</svg>
