<svg width="74" height="74" viewBox="0 0 74 74" fill="none" xmlns="http://www.w3.org/2000/svg">
<g clip-path="url(#clip0_1474_2340)">
<path d="M37 74C57.4345 74 74 57.4345 74 37C74 16.5655 57.4345 0 37 0C16.5655 0 0 16.5655 0 37C0 57.4345 16.5655 74 37 74Z" fill="#C75C5C"/>
<g opacity="0.2">
<path d="M60.125 57.8125C60.125 60.3563 58.0438 62.4375 55.5 62.4375H18.5C15.9562 62.4375 13.875 60.3563 13.875 57.8125V25.4375C13.875 22.8937 15.9562 20.8125 18.5 20.8125H55.5C58.0438 20.8125 60.125 22.8937 60.125 25.4375V57.8125Z" fill="#231F20"/>
</g>
<path d="M60.125 55.5C60.125 58.0438 58.0438 60.125 55.5 60.125H18.5C15.9562 60.125 13.875 58.0438 13.875 55.5V23.125C13.875 20.5812 15.9562 18.5 18.5 18.5H55.5C58.0438 18.5 60.125 20.5812 60.125 23.125V55.5Z" fill="#E0E0D1"/>
<g opacity="0.2">
<path d="M60.125 53.1875C60.125 55.7313 58.0438 57.8125 55.5 57.8125H18.5C15.9562 57.8125 13.875 55.7313 13.875 53.1875V20.8125C13.875 18.2687 15.9562 16.1875 18.5 16.1875H55.5C58.0438 16.1875 60.125 18.2687 60.125 20.8125V53.1875Z" fill="#231F20"/>
</g>
<path d="M60.125 50.875C60.125 53.4188 58.0438 55.5 55.5 55.5H18.5C15.9562 55.5 13.875 53.4188 13.875 50.875V18.5C13.875 15.9562 15.9562 13.875 18.5 13.875H55.5C58.0438 13.875 60.125 15.9562 60.125 18.5V50.875Z" fill="#E0E0D1"/>
<path d="M32.375 27.75H18.5V41.625H32.375V27.75Z" fill="#4F5D73"/>
<path d="M55.5 31.2188H41.625V32.375H55.5V31.2188Z" fill="#4F5D73"/>
<path d="M55.5 28.9062H41.625V30.0625H55.5V28.9062Z" fill="#4F5D73"/>
<path d="M40.4688 27.75H37V32.375H40.4688V27.75Z" fill="#4F5D73"/>
<path d="M55.5 34.6875H37V35.8438H55.5V34.6875Z" fill="#4F5D73"/>
<path d="M55.5 37H37V38.1562H55.5V37Z" fill="#4F5D73"/>
<path d="M55.5 39.3125H37V40.4688H55.5V39.3125Z" fill="#4F5D73"/>
<path d="M55.5 41.625H37V42.7812H55.5V41.625Z" fill="#4F5D73"/>
<path d="M55.5 45.0938H41.5094V46.25H55.5V45.0938Z" fill="#4F5D73"/>
<path d="M32.375 45.0938H18.5V46.25H32.375V45.0938Z" fill="#4F5D73"/>
<path d="M32.375 47.4062H18.5V48.5625H32.375V47.4062Z" fill="#4F5D73"/>
<path d="M32.375 49.7188H18.5V50.875H32.375V49.7188Z" fill="#4F5D73"/>
<path d="M32.375 52.0312H18.5V53.1875H32.375V52.0312Z" fill="#4F5D73"/>
<path d="M55.5 47.4062H37V48.5625H55.5V47.4062Z" fill="#4F5D73"/>
<path d="M55.5 49.7188H37V50.875H55.5V49.7188Z" fill="#4F5D73"/>
<path d="M55.5 52.0312H37V53.1875H55.5V52.0312Z" fill="#4F5D73"/>
<path d="M27.75 34.6875C29.0272 34.6875 30.0625 33.6522 30.0625 32.375C30.0625 31.0978 29.0272 30.0625 27.75 30.0625C26.4728 30.0625 25.4375 31.0978 25.4375 32.375C25.4375 33.6522 26.4728 34.6875 27.75 34.6875Z" fill="#E0E0D1"/>
<path d="M55.5 18.5H18.5V23.125H55.5V18.5Z" fill="#4F5D73"/>
<path d="M31.2188 40.4688V37.6938L30.2938 36.7688C29.7156 36.1906 28.7906 36.1906 28.2125 36.7688L27.2875 37.6938L25.0906 35.4969C23.9344 34.3406 22.0844 34.3406 21.0438 35.4969L19.6562 36.8844V40.4688H31.2188Z" fill="#E0E0D1"/>
</g>
<defs>
<clipPath id="clip0_1474_2340">
<rect width="74" height="74" fill="white"/>
</clipPath>
</defs>
</svg>
