<svg width="74" height="74" viewBox="0 0 74 74" fill="none" xmlns="http://www.w3.org/2000/svg">
<g clip-path="url(#clip0_1451_2686)">
<path d="M37.1751 8.38016C39.4892 8.38016 41.3652 6.5042 41.3652 4.19008C41.3652 1.87596 39.4892 0 37.1751 0C34.861 0 32.985 1.87596 32.985 4.19008C32.985 6.5042 34.861 8.38016 37.1751 8.38016Z" fill="#CF7B00"/>
<path d="M32.9843 4.19008C32.9843 6.5043 34.8603 8.38016 37.1744 8.38016V0C34.8604 0 32.9843 1.876 32.9843 4.19008Z" fill="#CF933C"/>
<path d="M36.9999 74C42.2701 74 46.5424 69.7277 46.5424 64.4575C46.5424 59.1874 42.2701 54.915 36.9999 54.915C31.7298 54.915 27.4575 59.1874 27.4575 64.4575C27.4575 69.7277 31.7298 74 36.9999 74Z" fill="#940009"/>
<path d="M27.4575 64.4571C27.4575 69.7272 31.7298 73.9996 36.9999 73.9996V54.9145C31.7298 54.9145 27.4575 59.1866 27.4575 64.4571Z" fill="#FF0029"/>
<path d="M67.481 58.0837C58.3806 47.8073 53.4211 34.5837 53.4984 20.8573C53.4985 20.8255 53.4987 20.7937 53.4987 20.7619C53.4987 11.6096 46.0792 4.19009 36.9268 4.19009C27.7744 4.19009 20.355 11.6096 20.355 20.7619C20.355 20.8088 20.3551 20.8558 20.3555 20.9024C20.4691 34.5746 15.5487 47.8159 6.51978 58.0833L6.51935 58.0837H67.481Z" fill="#FF9800"/>
<path d="M36.9999 4.19111C36.9755 4.19111 36.9511 4.19009 36.9267 4.19009C27.7743 4.19009 20.3548 11.6097 20.3548 20.7619C20.3548 20.8088 20.3549 20.8558 20.3554 20.9024C20.469 34.5746 15.5486 47.8159 6.51963 58.0833L6.5192 58.0837H36.9999V4.19111Z" fill="#F7DC4D"/>
<path d="M65.5561 64.4571H8.4439C6.0525 64.4571 4.11377 62.5183 4.11377 60.1269C4.11377 57.7355 6.0525 55.7968 8.4439 55.7968H65.5561C67.9475 55.7968 69.8862 57.7355 69.8862 60.1269C69.8862 62.5183 67.9475 64.4571 65.5561 64.4571Z" fill="#E5BF2B"/>
<path d="M59.6363 46.609C57.769 42.9725 56.3122 39.1416 55.2859 35.1854H18.6113C17.5979 39.1391 16.1548 42.9709 14.3029 46.609H59.6363Z" fill="#005A95"/>
<path d="M36.9999 35.1854H18.6418C17.6284 39.1391 16.1852 42.9711 14.3332 46.609H36.9998V35.1854H36.9999Z" fill="#31AAEF"/>
<path d="M36.9999 55.7968H8.4439C6.0525 55.7968 4.11377 57.7355 4.11377 60.1269C4.11377 62.5183 6.0525 64.4571 8.4439 64.4571H37.0001V55.797H36.9999V55.7968Z" fill="#F9ED9D"/>
</g>
<defs>
<clipPath id="clip0_1451_2686">
<rect width="74" height="74" fill="white"/>
</clipPath>
</defs>
</svg>
