<svg width="74" height="74" viewBox="0 0 74 74" fill="none" xmlns="http://www.w3.org/2000/svg">
<g clip-path="url(#clip0_1439_2026)">
<path d="M71.0886 2.01709H2.91379V71.9854H71.0886V2.01709Z" fill="#135BD8"/>
<path d="M2.91379 2.01709H71.0852V71.9831" fill="#0F3FAA"/>
<path d="M73.1021 74H0.897873V0H73.1021V74ZM4.93205 69.9636H69.0669V4.03639H4.93205V69.9636Z" fill="#3BABFF"/>
<path d="M43.7045 3.81165V20.6295H50.4323V36.1022H69.6061" fill="#135BD8"/>
<path d="M69.6061 38.1215H48.4152V22.6477H41.6874V3.81165H45.7252V18.6112H52.4506V34.0851H69.6061V38.1215Z" fill="#3BABFF"/>
<path d="M22.5137 35.0924H3.00456V39.1288H22.5137V35.0924Z" fill="#3BABFF"/>
<path d="M29.5781 44.5128V62.0025H41.3509V71.4217" fill="#135BD8"/>
<path d="M43.3692 71.4217H39.3327V64.0207H27.5598V44.5128H31.5952V59.9843H43.3692V71.4217Z" fill="#3BABFF"/>
</g>
<defs>
<clipPath id="clip0_1439_2026">
<rect width="74" height="74" fill="white"/>
</clipPath>
</defs>
</svg>
